<svg width="53" height="53" viewBox="0 0 53 53" fill="none" xmlns="http://www.w3.org/2000/svg">
<g id="system-uicons:circle-menu">
<g id="Group">
<path id="Vector" d="M26.4991 46.6935C37.65 46.6935 46.6895 37.6539 46.6895 26.503C46.6895 15.3521 37.65 6.3125 26.4991 6.3125C15.3482 6.3125 6.30859 15.3521 6.30859 26.503C6.30859 37.6539 15.3482 46.6935 26.4991 46.6935Z" stroke="black" stroke-linecap="round" stroke-linejoin="round"/>
<path id="Vector_2" fill-rule="evenodd" clip-rule="evenodd" d="M26.4993 29.0242C27.7612 29.0242 29.0231 27.7623 29.0231 26.5004C29.0231 25.2385 27.7612 23.9766 26.4993 23.9766C25.2374 23.9766 23.9781 25.2385 23.9781 26.5004C23.9781 27.7623 25.2374 29.0242 26.4993 29.0242ZM16.4041 29.0242C17.666 29.0242 18.9279 27.7623 18.9279 26.5004C18.9279 25.2385 17.666 23.9766 16.4041 23.9766C15.1422 23.9766 13.8828 25.2385 13.8828 26.5004C13.8828 27.7623 15.1422 29.0242 16.4041 29.0242ZM36.5946 29.0242C37.8565 29.0242 39.1184 27.7623 39.1184 26.5004C39.1184 25.2385 37.8565 23.9766 36.5946 23.9766C35.3327 23.9766 34.0733 25.2385 34.0733 26.5004C34.0733 27.7623 35.3327 29.0242 36.5946 29.0242Z" fill="black"/>
</g>
</g>
</svg>
