<svg width="17" height="18" viewBox="0 0 17 18" fill="none" xmlns="http://www.w3.org/2000/svg">
    <g id="Vector">
        <path id="Vector_2"
              d="M1.13067 9.03162C1.40796 9.32623 1.68525 9.41893 2.2324 9.41893L8.23206 9.4527C8.28752 9.4527 8.33486 9.4527 8.35887 9.48612C8.38254 9.51127 8.39032 9.56193 8.39032 9.61259L8.41399 15.9957C8.4221 16.5766 8.50935 16.8712 8.78664 17.1659C9.1593 17.5701 9.68243 17.5029 10.0706 17.0987C10.2769 16.8795 10.4433 16.5177 10.5938 16.1807L16.657 2.28674C16.9739 1.57966 16.9343 1.05726 16.6097 0.711988C16.2921 0.375337 15.8008 0.333301 15.1353 0.669952L2.05791 7.11195C1.74071 7.27184 1.40018 7.44861 1.1939 7.66777C0.813472 8.08023 0.750236 8.62742 1.13067 9.03162Z"
              fill="currentColor"/>
    </g>
</svg>
