<svg width="19" height="24" viewBox="0 0 19 24" fill="none" xmlns="http://www.w3.org/2000/svg">
    <g id="Group">
        <path id="Vector"
              d="M13.1967 11.115C13.1967 12.2042 12.764 13.2489 11.9938 14.0191C11.2235 14.7894 10.1788 15.2221 9.08956 15.2221C8.00028 15.2221 6.95561 14.7894 6.18538 14.0191C5.41514 13.2489 4.98242 12.2042 4.98242 11.115V5.36496C4.98242 4.27567 5.41514 3.23101 6.18538 2.46077C6.95561 1.69053 8.00028 1.25781 9.08956 1.25781C10.1788 1.25781 11.2235 1.69053 11.9938 2.46077C12.764 3.23101 13.1967 4.27567 13.1967 5.36496V11.115Z"
              stroke="currentColor" stroke-width="1.64286" stroke-linecap="round" stroke-linejoin="round"/>
        <path id="Vector_2"
              d="M17.3036 11.9375C17.3053 12.9088 17.1153 13.8709 16.7444 14.7687C16.3735 15.6664 15.829 16.4821 15.1421 17.1689C14.4553 17.8557 13.6396 18.4002 12.7419 18.7711C11.8442 19.142 10.8821 19.3321 9.91073 19.3304H8.26787C7.29642 19.3325 6.33411 19.1428 5.43619 18.772C4.53827 18.4013 3.72243 17.8568 3.03551 17.1699C2.34858 16.4829 1.80411 15.6671 1.43335 14.7692C1.0626 13.8713 0.872852 12.909 0.875018 11.9375M9.0893 19.3304V22.6161"
              stroke="currentColor" stroke-width="1.64286" stroke-linecap="round" stroke-linejoin="round"/>
    </g>
</svg>
