<svg width="59" height="59" viewBox="0 0 59 59" fill="none" xmlns="http://www.w3.org/2000/svg">
<g id="&#227;&#131;&#173;&#227;&#131;&#131;&#227;&#130;&#175;">
<circle id="&#227;&#131;&#173;&#227;&#131;&#131;&#227;&#130;&#175;&#228;&#184;&#184;" cx="29.5297" cy="29.5297" r="29.1" fill="#434343"/>
<path id="&#227;&#131;&#173;&#227;&#131;&#131;&#227;&#130;&#175;&#227;&#130;&#162;&#227;&#130;&#164;&#227;&#130;&#179;&#227;&#131;&#179;" d="M39.5007 25.2892H35.2632V22.0448C35.2632 20.5224 34.6592 19.0624 33.584 17.9859C32.5088 16.9095 31.0506 16.3047 29.53 16.3047C28.0095 16.3047 26.5513 16.9095 25.4761 17.9859C24.4009 19.0624 23.7969 20.5224 23.7969 22.0448V25.2892H19.5593C19.0966 25.2892 18.6527 25.4733 18.3255 25.8009C17.9983 26.1286 17.8145 26.5729 17.8145 27.0362V41.0122C17.8145 41.4756 17.9983 41.9199 18.3255 42.2475C18.6527 42.5752 19.0966 42.7592 19.5593 42.7592H39.5007C39.9635 42.7592 40.4073 42.5752 40.7346 42.2475C41.0618 41.9199 41.2456 41.4756 41.2456 41.0122V27.0362C41.2456 26.5729 41.0618 26.1286 40.7346 25.8009C40.4073 25.4733 39.9635 25.2892 39.5007 25.2892ZM25.2925 22.0448C25.2925 20.9196 25.7389 19.8404 26.5336 19.0448C27.3283 18.2491 28.4062 17.8021 29.53 17.8021C30.6539 17.8021 31.7317 18.2491 32.5264 19.0448C33.3211 19.8404 33.7676 20.9196 33.7676 22.0448V25.2892H25.2925V22.0448ZM39.75 41.0122C39.75 41.0784 39.7238 41.1419 39.677 41.1887C39.6303 41.2355 39.5669 41.2618 39.5007 41.2618H19.5593C19.4932 41.2618 19.4298 41.2355 19.3831 41.1887C19.3363 41.1419 19.3101 41.0784 19.3101 41.0122V27.0362C19.3101 26.9701 19.3363 26.9066 19.3831 26.8598C19.4298 26.813 19.4932 26.7867 19.5593 26.7867H39.5007C39.5669 26.7867 39.6303 26.813 39.677 26.8598C39.7238 26.9066 39.75 26.9701 39.75 27.0362V41.0122Z" fill="white"/>
</g>
</svg>
