<svg width="512" height="402" viewBox="0 0 512 402" fill="none" xmlns="http://www.w3.org/2000/svg">
<path d="M62.2339 384.719C62.2339 394.219 69.9369 401.922 79.4369 401.922H126.968C136.484 401.922 144.187 394.219 144.187 384.719V349.313H62.2339V384.719Z" fill="#626ED6"/>
<path d="M367.813 384.719C367.813 394.219 375.516 401.922 385.032 401.922H432.563C442.063 401.922 449.766 394.219 449.766 384.719V349.313H367.813V384.719Z" fill="#626ED6"/>
<path d="M456.531 167.656L432.375 80.0781C419.312 32.8121 376.312 0.078125 327.297 0.078125H184.703C135.672 0.078125 92.687 32.8121 79.64 80.0781L55.468 167.656C23.031 180.078 0 211.5 0 248.297C0 295.985 38.656 334.656 86.344 334.656H177.11C178.313 339.547 180.798 343.969 184.235 347.375C189.094 352.25 195.938 355.297 203.36 355.297H308.641C316.063 355.297 322.907 352.25 327.766 347.375C331.204 343.969 333.688 339.547 334.875 334.656H425.641C473.329 334.656 512 295.984 512 248.297C512 211.5 488.969 180.094 456.531 167.656ZM86.344 285.453C65.813 285.453 49.188 268.812 49.188 248.297C49.188 227.766 65.813 211.125 86.344 211.125C106.875 211.125 123.516 227.766 123.516 248.297C123.516 268.813 106.875 285.453 86.344 285.453ZM311.938 328.234C311.938 329.187 311.594 329.953 310.985 330.578C310.344 331.203 309.594 331.547 308.641 331.547H203.359C202.406 331.547 201.656 331.203 201.015 330.578C200.406 329.953 200.062 329.187 200.046 328.234V279.64C200.062 278.687 200.405 277.937 201.015 277.296C201.656 276.671 202.406 276.327 203.359 276.327H308.64C309.578 276.327 310.343 276.671 310.984 277.296C311.593 277.937 311.937 278.687 311.937 279.64L311.938 328.234ZM110.281 142.234C107.281 142.234 104.453 140.828 102.64 138.437C100.827 136.046 100.218 132.953 101.031 130.062L112.328 89.1091C121.281 56.6561 151.047 33.9841 184.703 33.9841H327.297C360.953 33.9841 390.719 56.6561 399.672 89.0931L410.969 130.062C411.782 132.953 411.188 136.046 409.36 138.437C407.547 140.828 404.719 142.234 401.719 142.234H110.281ZM425.641 285.453C405.125 285.453 388.469 268.812 388.469 248.297C388.469 227.766 405.125 211.125 425.641 211.125C446.172 211.125 462.813 227.766 462.813 248.297C462.813 268.813 446.172 285.453 425.641 285.453Z" fill="#626ED6"/>
</svg>
