<svg width="512" height="512" viewBox="0 0 512 512" fill="none" xmlns="http://www.w3.org/2000/svg">
<g clip-path="url(#clip0_2257_2295)">
<path d="M502.292 225.016C504.651 228.532 504.855 233.063 502.87 236.782C500.87 240.516 496.979 242.845 492.745 242.845H190.386V0H492.745C496.979 0 500.87 2.328 502.87 6.063C504.854 9.782 504.651 14.313 502.292 17.844L437.495 115.063C434.917 118.907 434.917 123.938 437.495 127.782L502.292 225.016Z" fill="#FF6C6C"/>
<path d="M158.011 0H93.2449V453.313H158.011V0Z" fill="#FF6C6C"/>
<path d="M250.62 463.438C250.62 490.251 196.276 512.001 129.198 512.001C62.1509 512 7.77588 490.25 7.77588 463.438C7.77588 436.61 62.1509 414.86 129.198 414.86C196.276 414.859 250.62 436.609 250.62 463.438Z" fill="#FF6C6C"/>
</g>
<defs>
<clipPath id="clip0_2257_2295">
<rect width="512" height="512" fill="white"/>
</clipPath>
</defs>
</svg>
