<?xml version="1.0" standalone="no"?>
<!DOCTYPE svg PUBLIC "-//W3C//DTD SVG 20010904//EN"
 "http://www.w3.org/TR/2001/REC-SVG-20010904/DTD/svg10.dtd">
<svg version="1.0" xmlns="http://www.w3.org/2000/svg"
 width="1280.000000pt" height="640.000000pt" viewBox="0 0 1280.000000 640.000000"
 preserveAspectRatio="xMidYMid meet">
<g transform="translate(0.000000,640.000000) scale(0.100000,-0.100000)"
fill="#000000" stroke="none">
<path d="M5345 5989 c-372 -27 -703 -116 -1031 -278 -367 -182 -645 -384
-1019 -741 -512 -489 -948 -791 -1377 -956 -141 -54 -262 -83 -433 -104 -595
-73 -1112 -388 -1329 -810 -57 -111 -90 -204 -114 -326 -55 -273 -55 -303 -6
-667 25 -184 89 -371 168 -490 89 -133 226 -233 355 -257 71 -13 278 -13 286
0 4 6 1 68 -5 138 -30 349 70 713 277 1005 80 112 259 289 369 364 580 395
1319 357 1856 -95 245 -206 429 -517 499 -840 25 -118 36 -382 21 -492 -8 -57
-8 -76 1 -82 17 -11 3755 -10 3761 1 3 5 1 65 -6 134 -65 691 375 1353 1044
1571 167 54 279 71 473 71 422 -1 766 -145 1066 -444 228 -229 364 -483 425
-796 18 -91 25 -323 14 -470 l-5 -70 540 -3 c780 -4 896 8 1110 112 248 122
400 311 494 618 20 65 21 88 21 755 0 640 -2 693 -19 760 -10 40 -29 93 -41
118 -51 105 -176 206 -320 257 l-65 23 -2016 5 -2015 5 -36 24 c-43 30 -71 71
-92 134 -14 41 -16 124 -16 620 0 589 -5 681 -44 829 -48 179 -130 301 -246
364 -34 18 -77 19 -1235 20 -660 1 -1249 -2 -1310 -7z m496 -649 c19 -10 19
-29 19 -728 0 -545 -3 -721 -12 -730 -15 -15 -1870 -17 -1962 -2 -116 19 -229
90 -273 173 -13 24 -17 54 -16 122 1 137 20 169 238 406 155 168 226 234 366
337 263 194 667 396 843 422 81 12 774 12 797 0z m1126 -12 c64 -25 98 -55
130 -112 l28 -51 3 -555 c2 -305 0 -570 -3 -588 -9 -46 -67 -107 -123 -128
-42 -16 -94 -19 -515 -22 -349 -2 -472 0 -483 9 -12 10 -14 122 -14 730 0 673
1 719 18 729 11 7 166 9 467 7 392 -2 455 -5 492 -19z"/>
<path d="M2241 2829 c-625 -57 -1101 -580 -1101 -1210 0 -512 321 -971 800
-1144 425 -153 904 -55 1244 255 114 105 237 284 296 433 182 458 77 968 -271
1318 -191 191 -457 320 -709 344 -130 12 -167 12 -259 4z m198 -630 c95 -15
168 -44 244 -95 161 -110 257 -290 257 -484 0 -338 -291 -610 -626 -586 -149
11 -266 65 -375 175 -119 119 -169 240 -169 406 0 158 47 285 149 397 136 150
326 219 520 187z"/>
<path d="M9020 2829 c-287 -23 -542 -146 -755 -363 -174 -177 -276 -367 -325
-606 -19 -91 -21 -128 -17 -275 3 -141 9 -187 30 -268 121 -457 490 -802 954
-894 117 -23 328 -23 445 0 500 99 878 478 975 977 20 103 22 314 3 420 -27
159 -95 332 -188 475 -60 92 -247 279 -342 340 -233 151 -496 217 -780 194z
m271 -645 c201 -60 353 -214 410 -419 23 -83 18 -237 -11 -325 -31 -97 -109
-211 -185 -273 -334 -270 -818 -117 -941 298 -24 81 -24 230 0 310 69 229 256
393 491 429 51 7 179 -3 236 -20z"/>
</g>
</svg>
